<mxfile host="65bd71144e">
    <diagram id="p-Q8rodp78rbxrCdaMyr" name="Page-1">
        <mxGraphModel dx="953" dy="816" grid="1" gridSize="10" guides="1" tooltips="1" connect="1" arrows="1" fold="1" page="1" pageScale="1" pageWidth="850" pageHeight="1100" math="0" shadow="0">
            <root>
                <mxCell id="0"/>
                <mxCell id="1" parent="0"/>
                <mxCell id="2" value="SP" style="rounded=0;whiteSpace=wrap;html=1;fontSize=26;" vertex="1" parent="1">
                    <mxGeometry x="150" y="160" width="120" height="60" as="geometry"/>
                </mxCell>
                <mxCell id="4" value="TCP&lt;font style=&quot;font-size: 16px;&quot;&gt;&lt;br style=&quot;font-size: 16px;&quot;&gt;&lt;/font&gt;" style="endArrow=classic;startArrow=classic;html=1;fontSize=16;entryX=0.25;entryY=0;entryDx=0;entryDy=0;exitX=1;exitY=1;exitDx=0;exitDy=0;" edge="1" parent="1" source="2" target="19">
                    <mxGeometry width="50" height="50" relative="1" as="geometry">
                        <mxPoint x="190" y="220" as="sourcePoint"/>
                        <mxPoint x="305" y="280" as="targetPoint"/>
                    </mxGeometry>
                </mxCell>
                <mxCell id="6" value="&lt;br&gt;" style="endArrow=classic;html=1;fontSize=16;exitX=0;exitY=0.5;exitDx=0;exitDy=0;entryX=1;entryY=0;entryDx=0;entryDy=0;" edge="1" parent="1" source="28" target="2">
                    <mxGeometry x="-1" y="-20" width="50" height="50" relative="1" as="geometry">
                        <mxPoint x="320" y="175" as="sourcePoint"/>
                        <mxPoint x="270" y="170" as="targetPoint"/>
                        <mxPoint x="20" y="20" as="offset"/>
                    </mxGeometry>
                </mxCell>
                <mxCell id="8" value="" style="endArrow=classic;html=1;fontSize=16;exitX=0.25;exitY=0;exitDx=0;exitDy=0;" edge="1" parent="1" source="2">
                    <mxGeometry x="1" y="-22" width="50" height="50" relative="1" as="geometry">
                        <mxPoint x="200" y="130" as="sourcePoint"/>
                        <mxPoint x="180" y="120" as="targetPoint"/>
                        <mxPoint x="-2" y="-10" as="offset"/>
                    </mxGeometry>
                </mxCell>
                <mxCell id="9" value="CL" style="rounded=0;whiteSpace=wrap;html=1;fontSize=26;" vertex="1" parent="1">
                    <mxGeometry x="30" y="280" width="60" height="60" as="geometry"/>
                </mxCell>
                <mxCell id="16" value="" style="endArrow=none;dashed=1;html=1;dashPattern=1 3;strokeWidth=2;fontSize=16;exitX=1;exitY=0.5;exitDx=0;exitDy=0;" edge="1" parent="1" source="18">
                    <mxGeometry width="50" height="50" relative="1" as="geometry">
                        <mxPoint x="270" y="405" as="sourcePoint"/>
                        <mxPoint x="330" y="405" as="targetPoint"/>
                    </mxGeometry>
                </mxCell>
                <mxCell id="18" value="SS" style="rounded=0;whiteSpace=wrap;html=1;fontSize=26;" vertex="1" parent="1">
                    <mxGeometry x="180" y="375" width="100" height="60" as="geometry"/>
                </mxCell>
                <mxCell id="19" value="SS" style="rounded=0;whiteSpace=wrap;html=1;fontSize=26;" vertex="1" parent="1">
                    <mxGeometry x="330" y="375" width="100" height="60" as="geometry"/>
                </mxCell>
                <mxCell id="24" value="" style="endArrow=classic;html=1;rounded=1;labelBorderColor=default;fontSize=16;entryX=0;entryY=0.5;entryDx=0;entryDy=0;exitX=0.5;exitY=0;exitDx=0;exitDy=0;" edge="1" parent="1" source="9" target="2">
                    <mxGeometry relative="1" as="geometry">
                        <mxPoint x="50" y="278.57" as="sourcePoint"/>
                        <mxPoint x="150" y="278.57" as="targetPoint"/>
                    </mxGeometry>
                </mxCell>
                <mxCell id="25" value="" style="shape=message;html=1;outlineConnect=0;fontSize=16;" vertex="1" parent="24">
                    <mxGeometry width="20" height="14" relative="1" as="geometry">
                        <mxPoint x="-10" y="-7" as="offset"/>
                    </mxGeometry>
                </mxCell>
                <mxCell id="26" value="UDP" style="endArrow=classic;html=1;rounded=1;labelBorderColor=default;fontSize=14;entryX=1.01;entryY=0.636;entryDx=0;entryDy=0;exitX=0.357;exitY=0.997;exitDx=0;exitDy=0;entryPerimeter=0;exitPerimeter=0;" edge="1" parent="1" source="2" target="9">
                    <mxGeometry x="0.2344" y="-28" relative="1" as="geometry">
                        <mxPoint x="90" y="310" as="sourcePoint"/>
                        <mxPoint x="180.0000000000001" y="220" as="targetPoint"/>
                        <mxPoint as="offset"/>
                    </mxGeometry>
                </mxCell>
                <mxCell id="27" value="" style="shape=message;html=1;outlineConnect=0;fontSize=16;" vertex="1" parent="26">
                    <mxGeometry width="20" height="14" relative="1" as="geometry">
                        <mxPoint x="-10" y="-7" as="offset"/>
                    </mxGeometry>
                </mxCell>
                <mxCell id="28" value=".conf" style="ellipse;whiteSpace=wrap;html=1;aspect=fixed;fontSize=15;" vertex="1" parent="1">
                    <mxGeometry x="320" y="140" width="40" height="40" as="geometry"/>
                </mxCell>
                <mxCell id="29" value="&lt;br&gt;" style="endArrow=classic;html=1;fontSize=16;exitX=0;exitY=0.5;exitDx=0;exitDy=0;" edge="1" parent="1" source="30">
                    <mxGeometry x="-1" y="-20" width="50" height="50" relative="1" as="geometry">
                        <mxPoint x="320" y="215" as="sourcePoint"/>
                        <mxPoint x="270" y="209.99999999999994" as="targetPoint"/>
                        <mxPoint x="20" y="20" as="offset"/>
                    </mxGeometry>
                </mxCell>
                <mxCell id="30" value=".db" style="ellipse;whiteSpace=wrap;html=1;aspect=fixed;fontSize=15;" vertex="1" parent="1">
                    <mxGeometry x="320" y="190" width="40" height="40" as="geometry"/>
                </mxCell>
                <mxCell id="34" value=".log" style="ellipse;whiteSpace=wrap;html=1;aspect=fixed;fontSize=15;" vertex="1" parent="1">
                    <mxGeometry x="160" y="80" width="40" height="40" as="geometry"/>
                </mxCell>
                <mxCell id="35" value="&lt;br&gt;" style="endArrow=classic;html=1;fontSize=16;exitX=0;exitY=0.5;exitDx=0;exitDy=0;entryX=1;entryY=0;entryDx=0;entryDy=0;" edge="1" parent="1" source="36">
                    <mxGeometry x="-1" y="-20" width="50" height="50" relative="1" as="geometry">
                        <mxPoint x="480" y="395" as="sourcePoint"/>
                        <mxPoint x="430" y="379.99999999999994" as="targetPoint"/>
                        <mxPoint x="20" y="20" as="offset"/>
                    </mxGeometry>
                </mxCell>
                <mxCell id="36" value=".conf" style="ellipse;whiteSpace=wrap;html=1;aspect=fixed;fontSize=15;" vertex="1" parent="1">
                    <mxGeometry x="480" y="360" width="40" height="40" as="geometry"/>
                </mxCell>
                <mxCell id="37" value="&lt;br&gt;" style="endArrow=classic;html=1;fontSize=16;entryX=0;entryY=0.5;entryDx=0;entryDy=0;" edge="1" parent="1" target="38">
                    <mxGeometry x="-1" y="-20" width="50" height="50" relative="1" as="geometry">
                        <mxPoint x="430" y="430" as="sourcePoint"/>
                        <mxPoint x="460" y="415" as="targetPoint"/>
                        <mxPoint x="20" y="20" as="offset"/>
                    </mxGeometry>
                </mxCell>
                <mxCell id="38" value=".log" style="ellipse;whiteSpace=wrap;html=1;aspect=fixed;fontSize=15;" vertex="1" parent="1">
                    <mxGeometry x="480" y="410" width="40" height="40" as="geometry"/>
                </mxCell>
            </root>
        </mxGraphModel>
    </diagram>
</mxfile>